<mxfile host="app.diagrams.net" modified="2022-01-22T08:24:25.325Z" agent="5.0 (Macintosh; Intel Mac OS X 10_15_7) AppleWebKit/605.1.15 (KHTML, like Gecko) Version/13.1.3 Safari/605.1.15" etag="rgF_n3eY0SASmX3X-ZUU" version="16.2.4" type="github">
  <diagram id="C5RBs43oDa-KdzZeNtuy" name="Page-1">
    <mxGraphModel dx="946" dy="588" grid="1" gridSize="10" guides="1" tooltips="1" connect="1" arrows="1" fold="1" page="1" pageScale="1" pageWidth="827" pageHeight="1169" math="0" shadow="0">
      <root>
        <mxCell id="WIyWlLk6GJQsqaUBKTNV-0" />
        <mxCell id="WIyWlLk6GJQsqaUBKTNV-1" parent="WIyWlLk6GJQsqaUBKTNV-0" />
        <mxCell id="xeB4nwrI3Fm0O2zAeklT-0" style="edgeStyle=orthogonalEdgeStyle;rounded=0;orthogonalLoop=1;jettySize=auto;html=1;exitX=0.5;exitY=1;exitDx=0;exitDy=0;entryX=0.5;entryY=0;entryDx=0;entryDy=0;" edge="1" parent="WIyWlLk6GJQsqaUBKTNV-1" source="xeB4nwrI3Fm0O2zAeklT-1" target="xeB4nwrI3Fm0O2zAeklT-3">
          <mxGeometry relative="1" as="geometry" />
        </mxCell>
        <mxCell id="xeB4nwrI3Fm0O2zAeklT-1" value="开始" style="rounded=1;whiteSpace=wrap;html=1;" vertex="1" parent="WIyWlLk6GJQsqaUBKTNV-1">
          <mxGeometry x="308.81" y="70" width="70" height="30" as="geometry" />
        </mxCell>
        <mxCell id="xeB4nwrI3Fm0O2zAeklT-2" style="edgeStyle=orthogonalEdgeStyle;rounded=0;orthogonalLoop=1;jettySize=auto;html=1;exitX=0.5;exitY=1;exitDx=0;exitDy=0;entryX=0.5;entryY=0;entryDx=0;entryDy=0;" edge="1" parent="WIyWlLk6GJQsqaUBKTNV-1" source="xeB4nwrI3Fm0O2zAeklT-3" target="xeB4nwrI3Fm0O2zAeklT-5">
          <mxGeometry relative="1" as="geometry" />
        </mxCell>
        <mxCell id="xeB4nwrI3Fm0O2zAeklT-3" value="读取图像数据" style="shape=parallelogram;perimeter=parallelogramPerimeter;whiteSpace=wrap;html=1;fixedSize=1;" vertex="1" parent="WIyWlLk6GJQsqaUBKTNV-1">
          <mxGeometry x="283.81" y="120" width="115" height="40" as="geometry" />
        </mxCell>
        <mxCell id="xeB4nwrI3Fm0O2zAeklT-4" style="edgeStyle=orthogonalEdgeStyle;rounded=0;orthogonalLoop=1;jettySize=auto;html=1;exitX=0.5;exitY=1;exitDx=0;exitDy=0;entryX=0.5;entryY=0;entryDx=0;entryDy=0;" edge="1" parent="WIyWlLk6GJQsqaUBKTNV-1" source="xeB4nwrI3Fm0O2zAeklT-5" target="xeB4nwrI3Fm0O2zAeklT-7">
          <mxGeometry relative="1" as="geometry" />
        </mxCell>
        <mxCell id="xeB4nwrI3Fm0O2zAeklT-5" value="定义常用参数" style="rounded=0;whiteSpace=wrap;html=1;" vertex="1" parent="WIyWlLk6GJQsqaUBKTNV-1">
          <mxGeometry x="287.56" y="180" width="107.5" height="40" as="geometry" />
        </mxCell>
        <mxCell id="xeB4nwrI3Fm0O2zAeklT-6" style="edgeStyle=orthogonalEdgeStyle;rounded=0;orthogonalLoop=1;jettySize=auto;html=1;exitX=0.5;exitY=1;exitDx=0;exitDy=0;entryX=0.5;entryY=0;entryDx=0;entryDy=0;" edge="1" parent="WIyWlLk6GJQsqaUBKTNV-1" source="xeB4nwrI3Fm0O2zAeklT-7">
          <mxGeometry relative="1" as="geometry">
            <mxPoint x="341.30999999999995" y="300" as="targetPoint" />
          </mxGeometry>
        </mxCell>
        <mxCell id="xeB4nwrI3Fm0O2zAeklT-7" value="生成Location Map" style="rounded=0;whiteSpace=wrap;html=1;" vertex="1" parent="WIyWlLk6GJQsqaUBKTNV-1">
          <mxGeometry x="282.56" y="240" width="121.25" height="40" as="geometry" />
        </mxCell>
        <mxCell id="xeB4nwrI3Fm0O2zAeklT-8" style="edgeStyle=orthogonalEdgeStyle;rounded=0;orthogonalLoop=1;jettySize=auto;html=1;exitX=0.5;exitY=1;exitDx=0;exitDy=0;entryX=0.5;entryY=0;entryDx=0;entryDy=0;" edge="1" parent="WIyWlLk6GJQsqaUBKTNV-1" source="xeB4nwrI3Fm0O2zAeklT-9">
          <mxGeometry relative="1" as="geometry">
            <mxPoint x="341.31500000000005" y="360.0000000000001" as="targetPoint" />
          </mxGeometry>
        </mxCell>
        <mxCell id="xeB4nwrI3Fm0O2zAeklT-9" value="计算像素值对应的局部复杂度LC" style="rounded=0;whiteSpace=wrap;html=1;" vertex="1" parent="WIyWlLk6GJQsqaUBKTNV-1">
          <mxGeometry x="287.56" y="300" width="107.5" height="40" as="geometry" />
        </mxCell>
        <mxCell id="xeB4nwrI3Fm0O2zAeklT-10" value="结束" style="rounded=1;whiteSpace=wrap;html=1;" vertex="1" parent="WIyWlLk6GJQsqaUBKTNV-1">
          <mxGeometry x="306" y="860" width="70" height="30" as="geometry" />
        </mxCell>
        <mxCell id="xeB4nwrI3Fm0O2zAeklT-11" value="&lt;br&gt;对比LC与阈值t1、t2、t3&lt;br&gt;的关系" style="rhombus;whiteSpace=wrap;html=1;" vertex="1" parent="WIyWlLk6GJQsqaUBKTNV-1">
          <mxGeometry x="257.18" y="360" width="167.63" height="70" as="geometry" />
        </mxCell>
        <mxCell id="xeB4nwrI3Fm0O2zAeklT-12" value="用C4预测像素值" style="rounded=0;whiteSpace=wrap;html=1;" vertex="1" parent="WIyWlLk6GJQsqaUBKTNV-1">
          <mxGeometry x="76" y="499" width="107.5" height="40" as="geometry" />
        </mxCell>
        <mxCell id="xeB4nwrI3Fm0O2zAeklT-13" value="用C10预测像素值" style="rounded=0;whiteSpace=wrap;html=1;" vertex="1" parent="WIyWlLk6GJQsqaUBKTNV-1">
          <mxGeometry x="216.56" y="500" width="107.5" height="40" as="geometry" />
        </mxCell>
        <mxCell id="xeB4nwrI3Fm0O2zAeklT-14" value="用C18预测像素值" style="rounded=0;whiteSpace=wrap;html=1;" vertex="1" parent="WIyWlLk6GJQsqaUBKTNV-1">
          <mxGeometry x="356.5" y="500" width="107.5" height="40" as="geometry" />
        </mxCell>
        <mxCell id="xeB4nwrI3Fm0O2zAeklT-15" value="" style="endArrow=none;html=1;rounded=0;" edge="1" parent="WIyWlLk6GJQsqaUBKTNV-1">
          <mxGeometry width="50" height="50" relative="1" as="geometry">
            <mxPoint x="130" y="470.0000000000001" as="sourcePoint" />
            <mxPoint x="550" y="470.0000000000001" as="targetPoint" />
          </mxGeometry>
        </mxCell>
        <mxCell id="xeB4nwrI3Fm0O2zAeklT-16" value="" style="endArrow=classic;html=1;rounded=0;" edge="1" parent="WIyWlLk6GJQsqaUBKTNV-1">
          <mxGeometry width="50" height="50" relative="1" as="geometry">
            <mxPoint x="130" y="470.0000000000001" as="sourcePoint" />
            <mxPoint x="130" y="500" as="targetPoint" />
          </mxGeometry>
        </mxCell>
        <mxCell id="xeB4nwrI3Fm0O2zAeklT-17" value="&lt;span style=&quot;color: rgb(51 , 51 , 51) ; font-size: 14px ; text-align: justify ; background-color: rgb(255 , 255 , 255)&quot;&gt;0 ≤&amp;nbsp;&lt;/span&gt;LC &amp;lt; t1" style="text;html=1;strokeColor=none;fillColor=none;align=center;verticalAlign=middle;whiteSpace=wrap;rounded=0;" vertex="1" parent="WIyWlLk6GJQsqaUBKTNV-1">
          <mxGeometry x="129" y="440" width="75.5" height="30" as="geometry" />
        </mxCell>
        <mxCell id="xeB4nwrI3Fm0O2zAeklT-18" value="&lt;span style=&quot;color: rgb(51 , 51 , 51) ; font-size: 14px ; text-align: justify ; background-color: rgb(255 , 255 , 255)&quot;&gt;t1 ≤&amp;nbsp;&lt;/span&gt;LC &amp;lt; t2" style="text;html=1;strokeColor=none;fillColor=none;align=center;verticalAlign=middle;whiteSpace=wrap;rounded=0;" vertex="1" parent="WIyWlLk6GJQsqaUBKTNV-1">
          <mxGeometry x="226.68" y="440" width="75.5" height="30" as="geometry" />
        </mxCell>
        <mxCell id="xeB4nwrI3Fm0O2zAeklT-19" value="&lt;span style=&quot;color: rgb(51 , 51 , 51) ; font-size: 14px ; text-align: justify ; background-color: rgb(255 , 255 , 255)&quot;&gt;t2 ≤&amp;nbsp;&lt;/span&gt;LC &amp;lt; t3" style="text;html=1;strokeColor=none;fillColor=none;align=center;verticalAlign=middle;whiteSpace=wrap;rounded=0;" vertex="1" parent="WIyWlLk6GJQsqaUBKTNV-1">
          <mxGeometry x="372.5" y="440" width="75.5" height="30" as="geometry" />
        </mxCell>
        <mxCell id="xeB4nwrI3Fm0O2zAeklT-20" value="粗糙块，不嵌入&lt;br&gt;秘密信息" style="rounded=0;whiteSpace=wrap;html=1;" vertex="1" parent="WIyWlLk6GJQsqaUBKTNV-1">
          <mxGeometry x="496.31" y="500" width="107.5" height="40" as="geometry" />
        </mxCell>
        <mxCell id="xeB4nwrI3Fm0O2zAeklT-21" value="" style="endArrow=classic;html=1;rounded=0;fontFamily=Helvetica;exitX=0.5;exitY=1;exitDx=0;exitDy=0;" edge="1" parent="WIyWlLk6GJQsqaUBKTNV-1" source="xeB4nwrI3Fm0O2zAeklT-11">
          <mxGeometry width="50" height="50" relative="1" as="geometry">
            <mxPoint x="310" y="490" as="sourcePoint" />
            <mxPoint x="341" y="470.0000000000001" as="targetPoint" />
          </mxGeometry>
        </mxCell>
        <mxCell id="xeB4nwrI3Fm0O2zAeklT-22" value="" style="endArrow=classic;html=1;rounded=0;fontFamily=Helvetica;entryX=0.5;entryY=0;entryDx=0;entryDy=0;" edge="1" parent="WIyWlLk6GJQsqaUBKTNV-1" target="xeB4nwrI3Fm0O2zAeklT-13">
          <mxGeometry width="50" height="50" relative="1" as="geometry">
            <mxPoint x="270" y="470.0000000000001" as="sourcePoint" />
            <mxPoint x="330" y="430" as="targetPoint" />
          </mxGeometry>
        </mxCell>
        <mxCell id="xeB4nwrI3Fm0O2zAeklT-23" value="" style="endArrow=classic;html=1;rounded=0;fontFamily=Helvetica;entryX=0.5;entryY=0;entryDx=0;entryDy=0;" edge="1" parent="WIyWlLk6GJQsqaUBKTNV-1" target="xeB4nwrI3Fm0O2zAeklT-14">
          <mxGeometry width="50" height="50" relative="1" as="geometry">
            <mxPoint x="410" y="470.0000000000001" as="sourcePoint" />
            <mxPoint x="350" y="420" as="targetPoint" />
          </mxGeometry>
        </mxCell>
        <mxCell id="xeB4nwrI3Fm0O2zAeklT-24" value="" style="endArrow=classic;html=1;rounded=0;fontFamily=Helvetica;entryX=0.5;entryY=0;entryDx=0;entryDy=0;" edge="1" parent="WIyWlLk6GJQsqaUBKTNV-1" target="xeB4nwrI3Fm0O2zAeklT-20">
          <mxGeometry width="50" height="50" relative="1" as="geometry">
            <mxPoint x="550" y="470.0000000000001" as="sourcePoint" />
            <mxPoint x="460" y="420" as="targetPoint" />
          </mxGeometry>
        </mxCell>
        <mxCell id="xeB4nwrI3Fm0O2zAeklT-25" value="LC&amp;nbsp;≥ t3" style="text;html=1;strokeColor=none;fillColor=none;align=center;verticalAlign=middle;whiteSpace=wrap;rounded=0;" vertex="1" parent="WIyWlLk6GJQsqaUBKTNV-1">
          <mxGeometry x="480" y="440" width="75.5" height="30" as="geometry" />
        </mxCell>
        <mxCell id="xeB4nwrI3Fm0O2zAeklT-26" style="edgeStyle=orthogonalEdgeStyle;rounded=0;orthogonalLoop=1;jettySize=auto;html=1;exitX=0.5;exitY=1;exitDx=0;exitDy=0;entryX=0.5;entryY=0;entryDx=0;entryDy=0;fontFamily=Helvetica;" edge="1" parent="WIyWlLk6GJQsqaUBKTNV-1" source="xeB4nwrI3Fm0O2zAeklT-27" target="xeB4nwrI3Fm0O2zAeklT-34">
          <mxGeometry relative="1" as="geometry" />
        </mxCell>
        <mxCell id="xeB4nwrI3Fm0O2zAeklT-27" value="采用PPVO中嵌入算法嵌入秘密信息" style="rounded=0;whiteSpace=wrap;html=1;" vertex="1" parent="WIyWlLk6GJQsqaUBKTNV-1">
          <mxGeometry x="287.25" y="590" width="107.5" height="40" as="geometry" />
        </mxCell>
        <mxCell id="xeB4nwrI3Fm0O2zAeklT-28" value="" style="endArrow=none;html=1;rounded=0;fontFamily=Helvetica;" edge="1" parent="WIyWlLk6GJQsqaUBKTNV-1">
          <mxGeometry width="50" height="50" relative="1" as="geometry">
            <mxPoint x="130" y="560" as="sourcePoint" />
            <mxPoint x="550" y="560" as="targetPoint" />
          </mxGeometry>
        </mxCell>
        <mxCell id="xeB4nwrI3Fm0O2zAeklT-29" value="" style="endArrow=none;html=1;rounded=0;fontFamily=Helvetica;" edge="1" parent="WIyWlLk6GJQsqaUBKTNV-1">
          <mxGeometry width="50" height="50" relative="1" as="geometry">
            <mxPoint x="410" y="560" as="sourcePoint" />
            <mxPoint x="410" y="540" as="targetPoint" />
          </mxGeometry>
        </mxCell>
        <mxCell id="xeB4nwrI3Fm0O2zAeklT-30" value="" style="endArrow=none;html=1;rounded=0;fontFamily=Helvetica;entryX=0.5;entryY=1;entryDx=0;entryDy=0;" edge="1" parent="WIyWlLk6GJQsqaUBKTNV-1" target="xeB4nwrI3Fm0O2zAeklT-13">
          <mxGeometry width="50" height="50" relative="1" as="geometry">
            <mxPoint x="270" y="560" as="sourcePoint" />
            <mxPoint x="330" y="520" as="targetPoint" />
          </mxGeometry>
        </mxCell>
        <mxCell id="xeB4nwrI3Fm0O2zAeklT-31" value="" style="endArrow=none;html=1;rounded=0;fontFamily=Helvetica;entryX=0.5;entryY=1;entryDx=0;entryDy=0;" edge="1" parent="WIyWlLk6GJQsqaUBKTNV-1" target="xeB4nwrI3Fm0O2zAeklT-12">
          <mxGeometry width="50" height="50" relative="1" as="geometry">
            <mxPoint x="130" y="560" as="sourcePoint" />
            <mxPoint x="200" y="520" as="targetPoint" />
          </mxGeometry>
        </mxCell>
        <mxCell id="xeB4nwrI3Fm0O2zAeklT-32" value="" style="endArrow=classic;html=1;rounded=0;fontFamily=Helvetica;entryX=0.5;entryY=0;entryDx=0;entryDy=0;" edge="1" parent="WIyWlLk6GJQsqaUBKTNV-1" target="xeB4nwrI3Fm0O2zAeklT-27">
          <mxGeometry width="50" height="50" relative="1" as="geometry">
            <mxPoint x="341" y="560" as="sourcePoint" />
            <mxPoint x="340" y="580" as="targetPoint" />
          </mxGeometry>
        </mxCell>
        <mxCell id="xeB4nwrI3Fm0O2zAeklT-33" style="edgeStyle=orthogonalEdgeStyle;rounded=0;orthogonalLoop=1;jettySize=auto;html=1;exitX=0.5;exitY=1;exitDx=0;exitDy=0;entryX=0.5;entryY=0;entryDx=0;entryDy=0;fontFamily=Helvetica;" edge="1" parent="WIyWlLk6GJQsqaUBKTNV-1" source="xeB4nwrI3Fm0O2zAeklT-34" target="xeB4nwrI3Fm0O2zAeklT-36">
          <mxGeometry relative="1" as="geometry" />
        </mxCell>
        <mxCell id="xeB4nwrI3Fm0O2zAeklT-34" value="嵌入附加信息和Location Map" style="rounded=0;whiteSpace=wrap;html=1;" vertex="1" parent="WIyWlLk6GJQsqaUBKTNV-1">
          <mxGeometry x="287.25" y="658" width="107.5" height="40" as="geometry" />
        </mxCell>
        <mxCell id="xeB4nwrI3Fm0O2zAeklT-35" style="edgeStyle=orthogonalEdgeStyle;rounded=0;orthogonalLoop=1;jettySize=auto;html=1;exitX=0.5;exitY=1;exitDx=0;exitDy=0;entryX=0.5;entryY=0;entryDx=0;entryDy=0;fontFamily=Helvetica;" edge="1" parent="WIyWlLk6GJQsqaUBKTNV-1" source="xeB4nwrI3Fm0O2zAeklT-36" target="xeB4nwrI3Fm0O2zAeklT-39">
          <mxGeometry relative="1" as="geometry" />
        </mxCell>
        <mxCell id="xeB4nwrI3Fm0O2zAeklT-36" value="保存嵌入后的图像" style="rounded=0;whiteSpace=wrap;html=1;" vertex="1" parent="WIyWlLk6GJQsqaUBKTNV-1">
          <mxGeometry x="287.25" y="725" width="107.5" height="40" as="geometry" />
        </mxCell>
        <mxCell id="xeB4nwrI3Fm0O2zAeklT-37" value="" style="endArrow=none;html=1;rounded=0;fontFamily=Helvetica;" edge="1" parent="WIyWlLk6GJQsqaUBKTNV-1">
          <mxGeometry width="50" height="50" relative="1" as="geometry">
            <mxPoint x="550" y="560" as="sourcePoint" />
            <mxPoint x="550" y="540" as="targetPoint" />
          </mxGeometry>
        </mxCell>
        <mxCell id="xeB4nwrI3Fm0O2zAeklT-38" style="edgeStyle=orthogonalEdgeStyle;rounded=0;orthogonalLoop=1;jettySize=auto;html=1;exitX=0.5;exitY=1;exitDx=0;exitDy=0;entryX=0.5;entryY=0;entryDx=0;entryDy=0;fontFamily=Helvetica;" edge="1" parent="WIyWlLk6GJQsqaUBKTNV-1" source="xeB4nwrI3Fm0O2zAeklT-39" target="xeB4nwrI3Fm0O2zAeklT-10">
          <mxGeometry relative="1" as="geometry" />
        </mxCell>
        <mxCell id="xeB4nwrI3Fm0O2zAeklT-39" value="保存嵌入后的图像" style="rounded=0;whiteSpace=wrap;html=1;" vertex="1" parent="WIyWlLk6GJQsqaUBKTNV-1">
          <mxGeometry x="287.25" y="794" width="107.5" height="40" as="geometry" />
        </mxCell>
      </root>
    </mxGraphModel>
  </diagram>
</mxfile>
